<?xml version="1.0" encoding="UTF-8"?>
<svg xmlns="http://www.w3.org/2000/svg" xmlns:xlink="http://www.w3.org/1999/xlink" width="0" height="0">
<symbol id="check" width="20" height="20" viewBox="0 0 20 20" fill="none">
<path d="M16.25 5L7.5 15L3.75 11.25" stroke="#1B1D1B" stroke-linecap="round" stroke-linejoin="round"/>
</symbol>
<symbol id="fb" viewBox="0 0 20 20" fill="none">
<path d="M10 0.4c-5.302 0-9.6 4.298-9.6 9.6s4.298 9.6 9.6 9.6 9.6-4.298 9.6-9.6-4.298-9.6-9.6-9.6zM7.65 13.979h-1.944v-6.256h1.944v6.256zM6.666 6.955c-0.614 0-1.011-0.435-1.011-0.973 0-0.549 0.409-0.971 1.036-0.971s1.011 0.422 1.023 0.971c0 0.538-0.396 0.973-1.048 0.973zM14.75 13.979h-1.944v-3.467c0-0.807-0.282-1.355-0.985-1.355-0.537 0-0.856 0.371-0.997 0.728-0.052 0.127-0.065 0.307-0.065 0.486v3.607h-1.945v-4.26c0-0.781-0.025-1.434-0.051-1.996h1.689l0.089 0.869h0.039c0.256-0.408 0.883-1.010 1.932-1.010 1.279 0 2.238 0.857 2.238 2.699v3.699z" fill="#F7FBFB"></path>
</symbol>
<symbol id="insta" width="40" height="40" viewBox="0 0 40 40" fill="none">
<path d="M12.9999 3.3335H26.9999C32.3333 3.3335 36.6666 7.66683 36.6666 13.0002V27.0002C36.6666 29.5639 35.6481 32.0227 33.8353 33.8355C32.0224 35.6484 29.5637 36.6668 26.9999 36.6668H12.9999C7.66659 36.6668 3.33325 32.3335 3.33325 27.0002V13.0002C3.33325 10.4364 4.3517 7.97765 6.16455 6.1648C7.9774 4.35195 10.4362 3.3335 12.9999 3.3335ZM12.6666 6.66683C11.0753 6.66683 9.54916 7.29897 8.42394 8.42419C7.29873 9.54941 6.66659 11.0755 6.66659 12.6668V27.3335C6.66659 30.6502 9.34992 33.3335 12.6666 33.3335H27.3333C28.9245 33.3335 30.4507 32.7014 31.5759 31.5761C32.7011 30.4509 33.3333 28.9248 33.3333 27.3335V12.6668C33.3333 9.35016 30.6499 6.66683 27.3333 6.66683H12.6666ZM28.7499 9.16683C29.3025 9.16683 29.8324 9.38632 30.2231 9.77702C30.6138 10.1677 30.8333 10.6976 30.8333 11.2502C30.8333 11.8027 30.6138 12.3326 30.2231 12.7233C29.8324 13.114 29.3025 13.3335 28.7499 13.3335C28.1974 13.3335 27.6675 13.114 27.2768 12.7233C26.8861 12.3326 26.6666 11.8027 26.6666 11.2502C26.6666 10.6976 26.8861 10.1677 27.2768 9.77702C27.6675 9.38632 28.1974 9.16683 28.7499 9.16683ZM19.9999 11.6668C22.2101 11.6668 24.3297 12.5448 25.8925 14.1076C27.4553 15.6704 28.3333 17.79 28.3333 20.0002C28.3333 22.2103 27.4553 24.3299 25.8925 25.8927C24.3297 27.4555 22.2101 28.3335 19.9999 28.3335C17.7898 28.3335 15.6702 27.4555 14.1074 25.8927C12.5446 24.3299 11.6666 22.2103 11.6666 20.0002C11.6666 17.79 12.5446 15.6704 14.1074 14.1076C15.6702 12.5448 17.7898 11.6668 19.9999 11.6668ZM19.9999 15.0002C18.6738 15.0002 17.4021 15.5269 16.4644 16.4646C15.5267 17.4023 14.9999 18.6741 14.9999 20.0002C14.9999 21.3262 15.5267 22.598 16.4644 23.5357C17.4021 24.4734 18.6738 25.0002 19.9999 25.0002C21.326 25.0002 22.5978 24.4734 23.5355 23.5357C24.4731 22.598 24.9999 21.3262 24.9999 20.0002C24.9999 18.6741 24.4731 17.4023 23.5355 16.4646C22.5978 15.5269 21.326 15.0002 19.9999 15.0002Z" fill="#F7FBFB"/>
</symbol>
<symbol id="logo" width="60" height="60" viewBox="0 0 90 90" fill="none">
<path d="M53.0912 12.0416L34.9088 2.11921C33.5862 1.39747 31.843 1 30 1C28.157 1 26.4138 1.39747 25.0912 2.11921L6.90884 12.0416C4.15607 13.5443 2 17.0742 2 20.0776V39.9255C2 42.9294 4.15607 46.4593 6.90884 47.9615L25.0912 57.8813C26.4138 58.603 28.157 59 30 59C31.843 59 33.5862 58.6025 34.9088 57.8813L53.0912 47.9569C55.8439 46.4546 58 42.9248 58 39.9208V20.073C58 17.0767 55.8439 13.5443 53.0912 12.0416ZM7.92442 46.2943C5.81526 45.1436 4.0328 42.2257 4.0328 39.9229V31.4409C10.5065 30.9594 14.3414 32.5802 19.1297 34.6176C23.4385 36.4518 28.6201 38.6526 37.0873 39.8383C35.5055 40.1255 33.9074 40.3894 32.3159 40.6513C23.6692 42.0773 15.4917 43.4352 11.0208 47.9837L7.92442 46.2943ZM35.2361 29.0298C31.3292 30.498 26.2404 31.8136 18.7146 32.3379C15.3875 30.9408 12.2202 29.7603 8.07059 29.4876L21.8961 16.4205L32.1135 26.0779L35.2361 29.0298ZM34.2701 25.3999L44.2111 16.0039L51.6834 23.0667C47.3822 23.4368 44.3714 24.8772 41.034 26.4825C39.8706 27.0419 38.6341 27.6348 37.2569 28.223L34.2701 25.3999ZM55.9661 39.9229C55.9661 42.2257 54.1842 45.1436 52.0739 46.2943L33.8911 56.2172C32.8908 56.7652 31.4727 57.0817 30 57.0817C28.5273 57.0817 27.1092 56.7678 26.1078 56.2198L12.8245 48.9683C16.925 45.14 24.585 43.8765 32.665 42.5433C41.7736 41.0426 51.1505 39.4924 55.9672 33.934L55.9661 39.9229ZM55.9661 30.3433C53.8286 34.7253 48.9667 37.0225 43.1731 38.533C33.1918 37.8484 27.31 35.8925 22.4889 33.9247C32.347 32.8086 37.624 30.2737 41.9541 28.1915C46.2183 26.1408 49.6348 24.5091 55.9661 24.9751V30.3433ZM55.9661 23.0476C55.4496 23.0115 54.9445 22.9857 54.4607 22.9749L44.931 13.9666C44.8367 13.8774 44.7247 13.8066 44.6014 13.7583C44.4781 13.71 44.3459 13.6852 44.2124 13.6852C44.079 13.6852 43.9468 13.71 43.8235 13.7583C43.7002 13.8066 43.5882 13.8774 43.4938 13.9666L32.8362 24.0415L22.6155 14.3831C22.5211 14.2939 22.4091 14.2231 22.2858 14.1749C22.1625 14.1266 22.0303 14.1017 21.8969 14.1017C21.7634 14.1017 21.6313 14.1266 21.508 14.1749C21.3847 14.2231 21.2726 14.2939 21.1783 14.3831L5.23765 29.452C4.84549 29.4649 4.44569 29.484 4.03771 29.5128V20.0787C4.03771 17.7758 5.82016 14.8574 7.92933 13.7067L26.1127 3.78385C27.1163 3.23585 28.535 2.92189 30.0049 2.92189C31.4748 2.92189 32.8957 3.23585 33.8971 3.78385L52.0799 13.7067C54.1902 14.8584 55.9721 17.7758 55.9721 20.0787L55.9661 23.0476Z" fill="#F7FBFB"/>
</symbol>
<symbol id="mail" width="40" height="40" viewBox="0 0 50 50" fill="none">
<path d="M33.5999 7.00012H6.39988C4.52988 7.00012 3.01688 8.46262 3.01688 10.2501L2.99988 29.7501C2.99988 31.5376 4.52988 33.0001 6.39988 33.0001H33.5999C35.4699 33.0001 36.9999 31.5376 36.9999 29.7501V10.2501C36.9999 8.46262 35.4699 7.00012 33.5999 7.00012ZM32.9199 13.9064L20.9009 21.0889C20.3569 21.4139 19.6429 21.4139 19.0989 21.0889L7.07988 13.9064C6.90941 13.8149 6.76014 13.6913 6.64109 13.5431C6.52204 13.3949 6.43568 13.2251 6.38726 13.0441C6.33883 12.8631 6.32933 12.6745 6.35934 12.4899C6.38936 12.3052 6.45825 12.1283 6.56186 11.9699C6.66546 11.8114 6.80163 11.6747 6.96211 11.568C7.1226 11.4613 7.30406 11.3868 7.49552 11.3491C7.68698 11.3114 7.88446 11.3112 8.076 11.3485C8.26754 11.3859 8.44917 11.46 8.60988 11.5664L19.9999 18.3751L31.3899 11.5664C31.5506 11.46 31.7322 11.3859 31.9238 11.3485C32.1153 11.3112 32.3128 11.3114 32.5042 11.3491C32.6957 11.3868 32.8772 11.4613 33.0376 11.568C33.1981 11.6747 33.3343 11.8114 33.4379 11.9699C33.5415 12.1283 33.6104 12.3052 33.6404 12.4899C33.6704 12.6745 33.6609 12.8631 33.6125 13.0441C33.5641 13.2251 33.4777 13.3949 33.3587 13.5431C33.2396 13.6913 33.0903 13.8149 32.9199 13.9064Z" fill="#F7FBFB"/>
</symbol>
<symbol id="mobile-icon" width="40" height="40" viewBox="0 0 50 50" fill="none">
<path d="M26.7691 2.00012H13.2306C12.1086 2.00012 11.0325 2.43113 10.239 3.19832C9.44562 3.96552 8.99988 5.00605 8.99988 6.09103V33.9092C8.99988 34.9942 9.44562 36.0347 10.239 36.8019C11.0325 37.5691 12.1086 38.0001 13.2306 38.0001H26.7691C27.8912 38.0001 28.9673 37.5691 29.7607 36.8019C30.5541 36.0347 30.9999 34.9942 30.9999 33.9092V6.09103C30.9999 5.00605 30.5541 3.96552 29.7607 3.19832C28.9673 2.43113 27.8912 2.00012 26.7691 2.00012ZM19.9999 36.3638C18.5953 36.3638 17.4614 35.2674 17.4614 33.9092C17.4614 32.551 18.5953 31.4547 19.9999 31.4547C21.4045 31.4547 22.5383 32.551 22.5383 33.9092C22.5383 35.2674 21.4045 36.3638 19.9999 36.3638ZM27.6153 29.8183H12.3845V6.90921H27.6153V29.8183Z" fill="#F7FBFB"/>
</symbol>
<symbol id="place" width="40" height="40" viewBox="0 0 50 50" fill="none">
<path d="M19.9999 2.99988C13.3656 2.99988 7.99988 8.32088 7.99988 14.8999C7.99988 23.8249 19.9999 36.9999 19.9999 36.9999C19.9999 36.9999 31.9999 23.8249 31.9999 14.8999C31.9999 8.32088 26.6342 2.99988 19.9999 2.99988ZM19.9999 19.1499C18.8632 19.1499 17.7731 18.7021 16.9694 17.9051C16.1657 17.1081 15.7142 16.027 15.7142 14.8999C15.7142 13.7727 16.1657 12.6917 16.9694 11.8947C17.7731 11.0976 18.8632 10.6499 19.9999 10.6499C21.1365 10.6499 22.2266 11.0976 23.0303 11.8947C23.8341 12.6917 24.2856 13.7727 24.2856 14.8999C24.2856 16.027 23.8341 17.1081 23.0303 17.9051C22.2266 18.7021 21.1365 19.1499 19.9999 19.1499Z" fill="#F7FBFB"/>
</symbol>
<symbol id="slick-arrow" width="40" height="40" viewBox="0 0 40 40" fill="none">
<path d="M15.2559 33C15.5869 32.9956 15.9042 32.8694 16.1456 32.6462L28.6339 20.3413C28.8684 20.108 29 19.7929 29 19.4645C29 19.1362 28.8684 18.8211 28.6339 18.5878L16.1456 6.28282C15.903 6.0866 15.595 5.98633 15.2814 6.0015C14.9679 6.01667 14.6713 6.14621 14.4494 6.36491C14.2274 6.58361 14.0959 6.87584 14.0805 7.18476C14.0652 7.49368 14.1669 7.7972 14.3661 8.03628L25.9802 19.4645L14.3661 30.8928C14.1316 31.1261 14 31.4411 14 31.7695C14 32.0979 14.1316 32.4129 14.3661 32.6462C14.6075 32.8694 14.9249 32.9956 15.2559 33Z" fill="#5B86A1"/>
</symbol>
<symbol id="telegram" width="40" height="40" viewBox="0 0 40 40" fill="none">
<path d="M19.9899 3.3335C16.6936 3.3335 13.4712 4.31098 10.7304 6.14234C7.98959 7.97369 5.85338 10.5767 4.59192 13.6221C3.33046 16.6675 3.00041 20.0187 3.6435 23.2517C4.28658 26.4847 5.87393 29.4544 8.2048 31.7853C10.5357 34.1162 13.5054 35.7035 16.7384 36.3466C19.9714 36.9897 23.3225 36.6596 26.368 35.3982C29.4134 34.1367 32.0164 32.0005 33.8477 29.2597C35.6791 26.5188 36.6566 23.2965 36.6566 20.0002C36.6566 17.8115 36.2255 15.6442 35.3879 13.6221C34.5503 11.6 33.3227 9.76269 31.775 8.21505C30.2274 6.66741 28.3901 5.43975 26.368 4.60217C24.3459 3.76459 22.1786 3.3335 19.9899 3.3335ZM25.2899 28.5868C25.2277 28.7425 25.1329 28.8831 25.0119 28.9992C24.8909 29.1152 24.7464 29.204 24.5882 29.2595C24.43 29.3151 24.2617 29.3362 24.0947 29.3214C23.9277 29.3065 23.7658 29.2561 23.6199 29.1735L19.0949 25.6568L16.1916 28.3368C16.1242 28.3866 16.0454 28.4186 15.9624 28.43C15.8794 28.4413 15.7949 28.4317 15.7166 28.4018L16.2732 23.4202L16.2899 23.4352L16.3016 23.3368C16.3016 23.3368 24.4432 15.9235 24.7749 15.6085C25.1116 15.2935 24.9999 15.2252 24.9999 15.2252C25.0199 14.8418 24.3982 15.2252 24.3982 15.2252L13.6099 22.1652L9.11825 20.6352C9.11825 20.6352 8.42825 20.3885 8.36325 19.8435C8.29492 19.3035 9.13992 19.0102 9.13992 19.0102L27.0016 11.9135C27.0016 11.9135 28.4699 11.2602 28.4699 12.3435L25.2899 28.5868Z" fill="#F7FBFB"/>
</symbol>
</svg>
